#!OML:ASF F:\VICON\USERDATA\INSTALL\rory3\rory3.ASF
:FULLY-SPECIFIED
:DEGREES
19
root 1.00032 18.0157 -7.487980000000036 -4.430659999999998 -5.598700000000007 0.09452550000000248
lfemur -12.398600000000002 -5.153559999999996 -24.837400000000006
ltibia 29.144099999999998
lfoot -8.427670000000003 2.0857800000000006
ltoes -0.16395500000000007
rfemur -13.5365 0.008644059999996845 21.184900000000006
rtibia 73.63209999999994
rfoot 5.6227399999999985 -3.257650000000005
rtoes 7.041800000000009
lowerback -1.0 1.8132299999999983 0.840806999999999
upperback 0.6631379999999996 2.545889999999998 0.47846199999999917
thorax -5.781469999999999 1.2337700000000007 -0.38783799999999913
lowerneck -15.771899999999999 -2.80712 -1.208860000000001
upperneck 22.643300000000004 -3.4024200000000007 -0.8653009999999987
head 9.79117 -1.78266 -0.5408649999999995
lclavicle -1.923860000000002e-14 -7.156249999999985e-15
lhumerus -35.552800000000005 9.443239999999998 79.0333
lradius 22.5839
lwrist 3.8266800000000014
lhand -26.029499999999995 20.642
lfingers 7.12502
lthumb 0.5172569999999954 50.6211
rclavicle -1.923860000000002e-14 -7.156249999999985e-15
rhumerus -24.849800000000002 -19.1006 -80.4064
rradius 25.542
rwrist 6.188299999999997
rhand -17.9047 -1.0
rfingers 7.12502
rthumb 8.36226 -7.14443
20
root 0.9902060000000003 18.0279 -6.959620000000022 -4.508300000000004 -4.8779100000000035 0.5858049999999937
lfemur -10.225699999999998 -5.353249999999991 -25.689599999999988
ltibia 28.174300000000002
lfoot -9.693570000000006 2.184960000000004
ltoes 0.4452240000000067
rfemur -17.485800000000005 -0.6966359999999887 20.530199999999994
rtibia 74.85910000000005
rfoot 2.4808099999999733 -5.227809999999999
rtoes 9.998570000000003
lowerback -1.0 1.4242000000000001 0.36849399999999843
upperback 0.5755900000000007 1.9689500000000004 0.4832070000000016
thorax -5.90396 0.9623280000000005 -0.025133499999998588
lowerneck -15.953 -2.70929 -1.2024399999999993
upperneck 23.156999999999996 -3.2031899999999998 -1.1165100000000017
head 10.003800000000002 -1.7193200000000002 -0.6134069999999989
lclavicle 6.994739999999994e-15 1.5505199999999985e-14
lhumerus -34.346900000000005 8.467189999999995 79.4171
lradius 23.375800000000005
lwrist 3.9451699999999983
lhand -25.803600000000003 23.720500000000005
lfingers 7.12502
lthumb 0.7354490000000014 53.699
rclavicle 6.994739999999994e-15 1.5505199999999985e-14
rhumerus -25.684599999999996 -20.493300000000005 -79.9332
rradius 24.915199999999995
rwrist 6.678459999999998
rhand -15.921000000000003 -1.0
rfingers 7.12502
rthumb 10.2764 -21.042600000000018
21
root 0.3352097744010838 17.924493959778157 17.608562644613535 -3.126988658524355 -3.1233216781847215 1.5157527160844826
lfemur 2.0499725825937958 -3.196223206312781 -25.38987117642278
ltibia 19.422681574230783
lfoot -2.685064164313904 -3.5999106667707177
ltoes -7.399073140069294
rfemur -25.139132578623723 0.5252058196312706 19.008206095361814
rtibia 73.60509363828291
rfoot -1.141210220608631 -0.03711306560824923
rtoes 7.768346744491032
lowerback -1.0 0.1670271288753064 -1.6812317560998626
upperback 0.379719593547333 -0.3325044632730684 0.6779966079734261
thorax -5.4296351643321294 0.09466224954703897 2.1884981671663577
lowerneck -16.69862936390981 -2.679178091655193 -1.2606212559427492
upperneck 22.593149624244276 -3.3356151987962437 -0.18693014297125166
head 9.954069234284171 -1.6827926690123445 -0.13636979720534043
lclavicle 3.8636559334110397e-16 -8.214539031957842e-16
lhumerus -30.62680452140894 4.629631086853573 79.6228758335868
lradius 26.20889355321704
lwrist 6.888073311130435
lhand -28.446798386062802 19.100848753105208
lfingers nan
lthumb -1.7998749645760568 49.00676626657855
rclavicle 4.598389242389443e-16 -7.723384664823319e-16
rhumerus -28.002321893751184 -21.12867634718524 -80.78161810933722
rradius 24.353240146659402
rwrist 3.7870731645586315
rhand -17.5495168706064 -1.0
rfingers nan
rthumb 8.791654363022898 -8.872418442195466
22
root 0.07733955426469313 17.88009597348183 13.201815452852118 -2.7205514492151566 -2.9248803074368217 3.4604298577759733
lfemur 7.133239627963299 -3.430576824275818 -27.733765561119277
ltibia 13.22464342784341
lfoot 3.311856240763637 -6.7690052849789755
ltoes -6.998955830399256
rfemur -27.44854150159246 0.8852569774151191 16.919350647892028
rtibia 69.5513463455499
rfoot -2.985886703495356 0.2891584439132817
rtoes 6.019384613355399
lowerback -1.0 -0.2572549550556706 -3.725113041196533
upperback 0.2769437654733041 -1.0824525214604397 0.5057955544799405
thorax -5.1419159031585115 -0.2845347230390843 2.811266345098411
lowerneck -16.75566620319948 -2.642636248460407 -1.5328652320225746
upperneck 22.128657783568084 -3.2552141197695494 0.3211819527154184
head 9.760882435294091 -1.652286574525917 0.1424878200238605
lclavicle 2.8311296229399453e-16 -8.890632529187689e-16
lhumerus -27.0356565644271 1.0772747788719768 79.46432198446786
lradius 27.755194511012785
lwrist 7.699586235020538
lhand -28.700495024173204 18.640468826567854
lfingers nan
lthumb -2.0921423602955547 48.04965485645504
rclavicle 3.8281893758342995e-16 -8.080090264361149e-16
rhumerus -29.91045269977382 -21.52370551799336 -81.24115593643494
rradius 24.018750490587795
rwrist 3.1007872182137626
rhand -17.51534413757097 -1.0
rfingers nan
rthumb 8.837173192738703 -8.183300677947534
